<?xml version="1.0" encoding="UTF-8" standalone="no"?>
<!-- Generator: Adobe Illustrator 23.0.2, SVG Export Plug-In . SVG Version: 6.00 Build 0)  -->

<svg
   xmlns:dc="http://purl.org/dc/elements/1.1/"
   xmlns:cc="http://creativecommons.org/ns#"
   xmlns:rdf="http://www.w3.org/1999/02/22-rdf-syntax-ns#"
   xmlns:svg="http://www.w3.org/2000/svg"
   xmlns="http://www.w3.org/2000/svg"
   xmlns:sodipodi="http://sodipodi.sourceforge.net/DTD/sodipodi-0.dtd"
   xmlns:inkscape="http://www.inkscape.org/namespaces/inkscape"
   version="1.1"
   id="Calque_1"
   x="0px"
   y="0px"
   viewBox="0 0 112.45535 41.98"
   xml:space="preserve"
   sodipodi:docname="favicon.svg"
   width="1.1714098in"
   height="0.43729165in"
   style="shape-rendering:crispEdges"
   inkscape:version="0.92.2 5c3e80d, 2017-08-06"
   inkscape:export-filename="/Users/jussics/Downloads/faviconlm.png"
   inkscape:export-xdpi="228.78416"
   inkscape:export-ydpi="228.78416"><metadata
     id="metadata960"><rdf:RDF><cc:Work
         rdf:about=""><dc:format>image/svg+xml</dc:format><dc:type
           rdf:resource="http://purl.org/dc/dcmitype/StillImage" /><dc:title></dc:title></cc:Work></rdf:RDF></metadata><defs
     id="defs958" /><sodipodi:namedview
     pagecolor="#ffffff"
     bordercolor="#666666"
     borderopacity="1"
     objecttolerance="10"
     gridtolerance="10"
     guidetolerance="10"
     inkscape:pageopacity="0"
     inkscape:pageshadow="2"
     inkscape:window-width="1438"
     inkscape:window-height="799"
     id="namedview956"
     showgrid="false"
     showguides="true"
     inkscape:guide-bbox="true"
     fit-margin-top="0"
     fit-margin-left="0"
     fit-margin-right="0"
     fit-margin-bottom="0"
     units="in"
     inkscape:pagecheckerboard="false"
     showborder="true"
     inkscape:zoom="2.2122341"
     inkscape:cx="68.23387"
     inkscape:cy="68.138082"
     inkscape:window-x="0"
     inkscape:window-y="0"
     inkscape:window-maximized="0"
     inkscape:current-layer="g980" /><style
     type="text/css"
     id="style933">
	.st0{fill:#F3E9D2;}
</style><g
     id="g980"
     transform="translate(-146.74466,-115.23)"
     style="fill:#e79e85;fill-opacity:0.39215687"><path
       id="path962"
       d="m 146.74466,151.23219 c 0,-1.35 0.46,-2.47 1.38,-3.38 0.92,-0.91 2.04,-1.36 3.37,-1.36 1.37,0 2.51,0.46 3.43,1.36 0.92,0.91 1.38,2.04 1.38,3.38 0,1.33 -0.47,2.46 -1.41,3.4 -0.94,0.94 -2.07,1.41 -3.4,1.41 -1.31,0 -2.43,-0.47 -3.35,-1.41 -0.93,-0.94 -1.4,-2.07 -1.4,-3.4 z"
       class="st0"
       inkscape:connector-curvature="0"
       style="fill:#e79e85;fill-opacity:0.39215687" /><path
       id="path964"
       d="m 204.43,142.1 1.67,0.73 -4.42,14.38 c -3.11,-0.12 -6.32,-0.21 -9.65,-0.26 -3.33,-0.06 -6.77,-0.09 -10.33,-0.09 -2.6,0 -5.25,0.02 -7.95,0.04 -2.71,0.03 -5.47,0.07 -8.31,0.13 v -1.61 c 3.05,-0.33 5.07,-1.13 6.06,-2.39 0.99,-1.26 1.49,-4.28 1.49,-9.07 V 128.3 c 0,-4.79 -0.5,-7.81 -1.49,-9.07 -0.99,-1.26 -3.02,-2.06 -6.06,-2.39 v -1.61 c 1.95,0.06 3.91,0.1 5.86,0.13 1.95,0.03 3.9,0.04 5.83,0.04 1.97,0 3.96,-0.01 5.96,-0.04 2,-0.03 4.01,-0.07 6.02,-0.13 l 0.03,1.61 c -3.24,0.25 -5.39,1.02 -6.43,2.29 -1.04,1.27 -1.57,4.33 -1.57,9.17 v 16.99 c 0,1.64 0.03,3.17 0.1,4.6 0.07,1.43 0.18,2.77 0.34,4.04 1.09,0.16 2.1,0.27 3.03,0.35 0.93,0.08 1.79,0.12 2.59,0.12 4.06,0 7.42,-0.95 10.08,-2.84 2.65,-1.89 5.04,-5.04 7.15,-9.46 z"
       class="st0"
       inkscape:connector-curvature="0"
       style="fill:#e79e85;fill-opacity:0.39215687" /><path
       id="path968"
       d="m 207.56,157.02 v -1.44 c 1.7,-0.33 2.81,-0.77 3.34,-1.3 0.53,-0.53 0.79,-1.88 0.79,-4.03 v -10.52 c 0,-1.78 -0.24,-3.02 -0.73,-3.74 -0.49,-0.71 -1.41,-1.49 -2.75,-2.33 v -1 c 1.66,-0.64 3.3,-1.32 4.92,-2.04 1.62,-0.71 3.2,-1.46 4.75,-2.24 l 1.08,0.85 -0.44,4.01 c 1.86,-1.5 3.66,-2.64 5.42,-3.41 1.76,-0.77 3.42,-1.16 4.98,-1.16 1.58,0 2.99,0.4 4.23,1.2 1.24,0.8 2.25,1.96 3.03,3.49 2.13,-1.56 4.08,-2.73 5.86,-3.52 1.78,-0.78 3.38,-1.17 4.8,-1.17 2.66,0 4.68,0.88 6.08,2.64 1.4,1.76 2.09,4.31 2.09,7.65 v 11.28 c 0,2.11 0.26,3.44 0.79,4 0.53,0.56 1.66,1 3.4,1.33 l -0.03,1.44 c -1.19,-0.06 -2.43,-0.1 -3.71,-0.13 -1.28,-0.03 -2.57,-0.04 -3.88,-0.04 -1.29,0 -2.59,0.02 -3.9,0.04 -1.31,0.03 -2.61,0.07 -3.9,0.13 v -1.44 c 1.64,-0.35 2.72,-0.8 3.24,-1.35 0.52,-0.55 0.78,-1.88 0.78,-3.98 v -8.96 c 0,-2.73 -0.49,-4.78 -1.48,-6.12 -0.99,-1.34 -2.5,-2.02 -4.53,-2.02 -0.76,0 -1.54,0.13 -2.33,0.4 -0.79,0.27 -1.64,0.67 -2.53,1.22 v 15.5 c 0,2.11 0.27,3.44 0.81,4 0.54,0.56 1.67,1 3.41,1.33 l -0.03,1.44 c -1.19,-0.06 -2.43,-0.1 -3.72,-0.13 -1.29,-0.03 -2.59,-0.04 -3.9,-0.04 -1.27,0 -2.56,0.02 -3.87,0.04 -1.31,0.03 -2.61,0.07 -3.9,0.13 l -0.03,-1.44 c 1.66,-0.35 2.74,-0.8 3.25,-1.35 0.51,-0.55 0.76,-1.88 0.76,-3.98 v -8.96 c 0,-2.77 -0.51,-4.83 -1.52,-6.18 -1.02,-1.35 -2.59,-2.02 -4.72,-2.02 -0.74,0 -1.48,0.13 -2.21,0.38 -0.73,0.25 -1.51,0.64 -2.33,1.17 v 15.61 c 0,2.11 0.26,3.44 0.79,4 0.53,0.56 1.64,1 3.34,1.33 v 1.44 c -1.39,-0.06 -2.74,-0.1 -4.07,-0.13 -1.33,-0.03 -2.65,-0.04 -3.96,-0.04 -1.29,0 -2.55,0.02 -3.79,0.04 -1.22,0.02 -2.45,0.06 -3.68,0.12 z"
       class="st0"
       inkscape:connector-curvature="0"
       style="fill:#e79e85;fill-opacity:0.39215687" /></g></svg>